<svg xmlns="http://www.w3.org/2000/svg" version="1.1" xmlns:xlink="http://www.w3.org/1999/xlink" xmlns:svgjs="http://svgjs.dev/svgjs" width="1500" height="939" viewBox="0 0 1500 939"><g transform="matrix(1,0,0,1,-0.9090909090909918,-1.5145161290323017)"><svg viewBox="0 0 396 248" data-background-color="#f0eadc" preserveAspectRatio="xMidYMid meet" height="939" width="1500" xmlns="http://www.w3.org/2000/svg" xmlns:xlink="http://www.w3.org/1999/xlink"><g id="tight-bounds" transform="matrix(1,0,0,1,0.2400000000000091,0.4000000000000057)"><svg viewBox="0 0 395.52 247.2" height="247.2" width="395.52"><g><svg></svg></g><g><svg viewBox="0 0 395.52 247.2" height="247.2" width="395.52"><mask id="f0ab1d3f-e460-4c21-8df7-3fd797857248"><rect width="640" height="400" fill="white"></rect><g transform="matrix(1,0,0,1,39.55199999999999,69.73954160774416)"><svg viewBox="0 0 316.416 107.72091678451167" height="107.72091678451167" width="316.416"><g><svg viewBox="0 0 316.416 107.72091678451167" height="107.72091678451167" width="316.416"><g><svg viewBox="0 0 316.416 107.72091678451167" height="107.72091678451167" width="316.416"><g><svg viewBox="0 0 316.416 107.72091678451167" height="107.72091678451167" width="316.416"><g id="SvgjsG3005"><svg viewBox="0 0 316.416 107.72091678451167" height="107.72091678451167" width="316.416" id="SvgjsSvg3004"><g><svg viewBox="0 0 316.416 74.3658340048348" height="74.3658340048348" width="316.416"><g transform="matrix(1,0,0,1,0,0)"><svg width="316.416" viewBox="-0.9500000000000002 -40.25 187.14 44.75" height="74.3658340048348" data-palette-color="#2ea673"><path d="M36-17.9L36-17.9Q36-12.35 34.13-8.22 32.25-4.1 28.6-1.8 24.95 0.5 19.55 0.5L19.55 0.5Q14 0.5 10.33-1.8 6.65-4.1 4.85-8.25 3.05-12.4 3.05-17.95L3.05-17.95Q3.05-23.45 4.85-27.55 6.65-31.65 10.33-33.95 14-36.25 19.6-36.25L19.6-36.25Q24.95-36.25 28.6-33.98 32.25-31.7 34.13-27.58 36-23.45 36-17.9ZM7.8-17.9L7.8-17.9Q7.8-13.4 9.05-10.15 10.3-6.9 12.93-5.15 15.55-3.4 19.55-3.4L19.55-3.4Q23.6-3.4 26.18-5.15 28.75-6.9 30-10.15 31.25-13.4 31.25-17.9L31.25-17.9Q31.25-24.65 28.45-28.48 25.65-32.3 19.6-32.3L19.6-32.3Q15.55-32.3 12.93-30.58 10.3-28.85 9.05-25.63 7.8-22.4 7.8-17.9ZM42.3-35.7L47.05-35.7 46.05-22.8 43.3-22.8 42.3-35.7ZM59.65-15.15L59.65 0 55.15 0 55.15-35.7 75.1-35.7 75.1-31.75 59.65-31.75 59.65-19.1 74.15-19.1 74.15-15.15 59.65-15.15ZM112.24-17.9L112.24-17.9Q112.24-12.35 110.37-8.22 108.49-4.1 104.84-1.8 101.19 0.5 95.79 0.5L95.79 0.5Q90.24 0.5 86.57-1.8 82.89-4.1 81.09-8.25 79.29-12.4 79.29-17.95L79.29-17.95Q79.29-23.45 81.09-27.55 82.89-31.65 86.57-33.95 90.24-36.25 95.84-36.25L95.84-36.25Q101.19-36.25 104.84-33.98 108.49-31.7 110.37-27.58 112.24-23.45 112.24-17.9ZM84.04-17.9L84.04-17.9Q84.04-13.4 85.29-10.15 86.54-6.9 89.17-5.15 91.79-3.4 95.79-3.4L95.79-3.4Q99.84-3.4 102.42-5.15 104.99-6.9 106.24-10.15 107.49-13.4 107.49-17.9L107.49-17.9Q107.49-24.65 104.69-28.48 101.89-32.3 95.84-32.3L95.84-32.3Q91.79-32.3 89.17-30.58 86.54-28.85 85.29-25.63 84.04-22.4 84.04-17.9ZM147.29-35.7L147.29-12.6Q147.29-8.9 145.79-5.93 144.29-2.95 141.22-1.23 138.14 0.5 133.39 0.5L133.39 0.5Q126.74 0.5 123.27-3.13 119.79-6.75 119.79-12.7L119.79-12.7 119.79-35.7 124.29-35.7 124.29-12.55Q124.29-8.2 126.62-5.8 128.94-3.4 133.64-3.4L133.64-3.4Q138.49-3.4 140.67-5.98 142.84-8.55 142.84-12.6L142.84-12.6 142.84-35.7 147.29-35.7ZM156.69-35.7L166.54-35.7Q170.99-35.7 173.86-34.58 176.74-33.45 178.14-31.2 179.54-28.95 179.54-25.55L179.54-25.55Q179.54-22.7 178.49-20.8 177.44-18.9 175.81-17.78 174.19-16.65 172.39-16L172.39-16 182.19 0 176.94 0 168.29-14.75 161.19-14.75 161.19 0 156.69 0 156.69-35.7ZM166.29-31.8L166.29-31.8 161.19-31.8 161.19-18.55 166.54-18.55Q170.89-18.55 172.89-20.28 174.89-22 174.89-25.35L174.89-25.35Q174.89-27.7 173.96-29.1 173.04-30.5 171.14-31.15 169.24-31.8 166.29-31.8Z" opacity="1" transform="matrix(1,0,0,1,0,0)" fill="black" class="wordmark-text-0" id="SvgjsPath3003" stroke-width="7" stroke="black" stroke-linejoin="round"></path></svg></g></svg></g><g transform="matrix(1,0,0,1,3.5,89.11286445279612)"><svg viewBox="0 0 309.416 18.60805233171555" height="18.60805233171555" width="309.416"><g transform="matrix(1,0,0,1,0,0)"><svg width="309.416" viewBox="0.8499999999999996 -42 948.6899999999999 58" height="18.60805233171555" data-palette-color="#2ea673"><path d="M24.95 0L4.85 0 4.85-35.7 9.35-35.7 9.35-4 24.95-4 24.95 0ZM40.8-27.3L40.8-27.3Q44.25-27.3 46.72-25.8 49.2-24.3 50.52-21.58 51.85-18.85 51.85-15.2L51.85-15.2 51.85-12.55 33.5-12.55Q33.6-8 35.82-5.63 38.05-3.25 42.05-3.25L42.05-3.25Q44.6-3.25 46.57-3.73 48.55-4.2 50.65-5.1L50.65-5.1 50.65-1.25Q48.6-0.35 46.6 0.08 44.6 0.5 41.85 0.5L41.85 0.5Q38.05 0.5 35.12-1.05 32.2-2.6 30.57-5.68 28.95-8.75 28.95-13.2L28.95-13.2Q28.95-17.6 30.42-20.75 31.9-23.9 34.57-25.6 37.25-27.3 40.8-27.3ZM40.75-23.7L40.75-23.7Q37.6-23.7 35.77-21.68 33.95-19.65 33.6-16.05L33.6-16.05 47.25-16.05Q47.2-19.45 45.65-21.58 44.1-23.7 40.75-23.7ZM89.09-7.4L89.09-7.4Q89.09-4.8 87.79-3.05 86.49-1.3 84.09-0.4 81.69 0.5 78.39 0.5L78.39 0.5Q75.59 0.5 73.57 0.05 71.54-0.4 69.99-1.2L69.99-1.2 69.99-5.2Q71.59-4.4 73.87-3.73 76.14-3.05 78.49-3.05L78.49-3.05Q81.84-3.05 83.34-4.13 84.84-5.2 84.84-7L84.84-7Q84.84-8 84.29-8.8 83.74-9.6 82.32-10.4 80.89-11.2 78.24-12.2L78.24-12.2Q75.64-13.2 73.79-14.2 71.94-15.2 70.94-16.6 69.94-18 69.94-20.2L69.94-20.2Q69.94-23.6 72.72-25.45 75.49-27.3 79.99-27.3L79.99-27.3Q82.44-27.3 84.57-26.83 86.69-26.35 88.54-25.5L88.54-25.5 87.04-22Q85.34-22.7 83.49-23.2 81.64-23.7 79.69-23.7L79.69-23.7Q76.99-23.7 75.57-22.83 74.14-21.95 74.14-20.45L74.14-20.45Q74.14-19.35 74.79-18.57 75.44-17.8 76.97-17.07 78.49-16.35 81.04-15.35L81.04-15.35Q83.59-14.4 85.39-13.4 87.19-12.4 88.14-10.98 89.09-9.55 89.09-7.4ZM105.94-27.3L105.94-27.3Q109.39-27.3 111.87-25.8 114.34-24.3 115.67-21.58 116.99-18.85 116.99-15.2L116.99-15.2 116.99-12.55 98.64-12.55Q98.74-8 100.97-5.63 103.19-3.25 107.19-3.25L107.19-3.25Q109.74-3.25 111.72-3.73 113.69-4.2 115.79-5.1L115.79-5.1 115.79-1.25Q113.74-0.35 111.74 0.08 109.74 0.5 106.99 0.5L106.99 0.5Q103.19 0.5 100.27-1.05 97.34-2.6 95.72-5.68 94.09-8.75 94.09-13.2L94.09-13.2Q94.09-17.6 95.57-20.75 97.04-23.9 99.72-25.6 102.39-27.3 105.94-27.3ZM105.89-23.7L105.89-23.7Q102.74-23.7 100.92-21.68 99.09-19.65 98.74-16.05L98.74-16.05 112.39-16.05Q112.34-19.45 110.79-21.58 109.24-23.7 105.89-23.7ZM134.54 0.5L134.54 0.5Q130.99 0.5 128.21-0.95 125.44-2.4 123.86-5.45 122.29-8.5 122.29-13.25L122.29-13.25Q122.29-18.2 123.94-21.3 125.59-24.4 128.41-25.85 131.24-27.3 134.84-27.3L134.84-27.3Q136.89-27.3 138.79-26.88 140.69-26.45 141.89-25.85L141.89-25.85 140.54-22.2Q139.34-22.65 137.74-23.05 136.14-23.45 134.74-23.45L134.74-23.45Q132.04-23.45 130.29-22.3 128.54-21.15 127.69-18.9 126.84-16.65 126.84-13.3L126.84-13.3Q126.84-10.1 127.69-7.85 128.54-5.6 130.24-4.45 131.94-3.3 134.49-3.3L134.49-3.3Q136.69-3.3 138.36-3.75 140.04-4.2 141.44-4.85L141.44-4.85 141.44-0.95Q140.09-0.25 138.46 0.13 136.84 0.5 134.54 0.5ZM160.29-27.3L160.29-27.3Q161.04-27.3 161.91-27.23 162.79-27.15 163.44-27L163.44-27 162.89-22.95Q162.24-23.1 161.46-23.2 160.69-23.3 159.99-23.3L159.99-23.3Q157.94-23.3 156.14-22.18 154.34-21.05 153.26-19.03 152.19-17 152.19-14.3L152.19-14.3 152.19 0 147.79 0 147.79-26.8 151.39-26.8 151.89-21.9 152.09-21.9Q153.39-24.1 155.44-25.7 157.49-27.3 160.29-27.3ZM178.78-27.3L178.78-27.3Q182.23-27.3 184.71-25.8 187.18-24.3 188.51-21.58 189.83-18.85 189.83-15.2L189.83-15.2 189.83-12.55 171.48-12.55Q171.58-8 173.81-5.63 176.03-3.25 180.03-3.25L180.03-3.25Q182.58-3.25 184.56-3.73 186.53-4.2 188.63-5.1L188.63-5.1 188.63-1.25Q186.58-0.35 184.58 0.08 182.58 0.5 179.83 0.5L179.83 0.5Q176.03 0.5 173.11-1.05 170.18-2.6 168.56-5.68 166.93-8.75 166.93-13.2L166.93-13.2Q166.93-17.6 168.41-20.75 169.88-23.9 172.56-25.6 175.23-27.3 178.78-27.3ZM178.73-23.7L178.73-23.7Q175.58-23.7 173.76-21.68 171.93-19.65 171.58-16.05L171.58-16.05 185.23-16.05Q185.18-19.45 183.63-21.58 182.08-23.7 178.73-23.7ZM205.58-3.1L205.58-3.1Q206.58-3.1 207.63-3.28 208.68-3.45 209.33-3.65L209.33-3.65 209.33-0.3Q208.63 0.05 207.33 0.28 206.03 0.5 204.83 0.5L204.83 0.5Q202.73 0.5 200.96-0.23 199.18-0.95 198.08-2.75 196.98-4.55 196.98-7.8L196.98-7.8 196.98-23.4 193.18-23.4 193.18-25.5 197.03-27.25 198.78-32.95 201.38-32.95 201.38-26.8 209.13-26.8 209.13-23.4 201.38-23.4 201.38-7.9Q201.38-5.45 202.56-4.28 203.73-3.1 205.58-3.1ZM219.68-5.8L220.03-5.25Q219.58-3.5 218.88-1.45 218.18 0.6 217.35 2.63 216.53 4.65 215.73 6.45L215.73 6.45 212.48 6.45Q212.98 4.55 213.45 2.38 213.93 0.2 214.33-1.93 214.73-4.05 214.98-5.8L214.98-5.8 219.68-5.8ZM251.82 0.5L251.82 0.5Q248.27 0.5 245.5-0.95 242.72-2.4 241.15-5.45 239.57-8.5 239.57-13.25L239.57-13.25Q239.57-18.2 241.22-21.3 242.87-24.4 245.7-25.85 248.52-27.3 252.12-27.3L252.12-27.3Q254.17-27.3 256.07-26.88 257.97-26.45 259.17-25.85L259.17-25.85 257.82-22.2Q256.62-22.65 255.02-23.05 253.42-23.45 252.02-23.45L252.02-23.45Q249.32-23.45 247.57-22.3 245.82-21.15 244.97-18.9 244.12-16.65 244.12-13.3L244.12-13.3Q244.12-10.1 244.97-7.85 245.82-5.6 247.52-4.45 249.22-3.3 251.77-3.3L251.77-3.3Q253.97-3.3 255.65-3.75 257.32-4.2 258.72-4.85L258.72-4.85 258.72-0.95Q257.37-0.25 255.75 0.13 254.12 0.5 251.82 0.5ZM264.07-35.7L268.82-35.7 267.82-22.8 265.07-22.8 264.07-35.7ZM286.67-27.3L286.67-27.3Q290.12-27.3 292.59-25.8 295.07-24.3 296.39-21.58 297.72-18.85 297.72-15.2L297.72-15.2 297.72-12.55 279.37-12.55Q279.47-8 281.69-5.63 283.92-3.25 287.92-3.25L287.92-3.25Q290.47-3.25 292.44-3.73 294.42-4.2 296.52-5.1L296.52-5.1 296.52-1.25Q294.47-0.35 292.47 0.08 290.47 0.5 287.72 0.5L287.72 0.5Q283.92 0.5 280.99-1.05 278.07-2.6 276.44-5.68 274.82-8.75 274.82-13.2L274.82-13.2Q274.82-17.6 276.29-20.75 277.77-23.9 280.44-25.6 283.12-27.3 286.67-27.3ZM286.62-23.7L286.62-23.7Q283.47-23.7 281.64-21.68 279.82-19.65 279.47-16.05L279.47-16.05 293.12-16.05Q293.07-19.45 291.52-21.58 289.97-23.7 286.62-23.7ZM321.97-7.4L321.97-7.4Q321.97-4.8 320.67-3.05 319.37-1.3 316.97-0.4 314.57 0.5 311.27 0.5L311.27 0.5Q308.47 0.5 306.44 0.05 304.42-0.4 302.87-1.2L302.87-1.2 302.87-5.2Q304.47-4.4 306.74-3.73 309.02-3.05 311.37-3.05L311.37-3.05Q314.72-3.05 316.22-4.13 317.72-5.2 317.72-7L317.72-7Q317.72-8 317.17-8.8 316.62-9.6 315.19-10.4 313.77-11.2 311.12-12.2L311.12-12.2Q308.52-13.2 306.67-14.2 304.82-15.2 303.82-16.6 302.82-18 302.82-20.2L302.82-20.2Q302.82-23.6 305.59-25.45 308.37-27.3 312.87-27.3L312.87-27.3Q315.32-27.3 317.44-26.83 319.57-26.35 321.42-25.5L321.42-25.5 319.92-22Q318.22-22.7 316.37-23.2 314.52-23.7 312.57-23.7L312.57-23.7Q309.87-23.7 308.44-22.83 307.02-21.95 307.02-20.45L307.02-20.45Q307.02-19.35 307.67-18.57 308.32-17.8 309.84-17.07 311.37-16.35 313.92-15.35L313.92-15.35Q316.47-14.4 318.27-13.4 320.07-12.4 321.02-10.98 321.97-9.55 321.97-7.4ZM337.41-3.1L337.41-3.1Q338.41-3.1 339.46-3.28 340.51-3.45 341.16-3.65L341.16-3.65 341.16-0.3Q340.46 0.05 339.16 0.28 337.86 0.5 336.66 0.5L336.66 0.5Q334.56 0.5 332.79-0.23 331.01-0.95 329.91-2.75 328.81-4.55 328.81-7.8L328.81-7.8 328.81-23.4 325.01-23.4 325.01-25.5 328.86-27.25 330.61-32.95 333.21-32.95 333.21-26.8 340.96-26.8 340.96-23.4 333.21-23.4 333.21-7.9Q333.21-5.45 334.39-4.28 335.56-3.1 337.41-3.1ZM369.01 0.5L369.01 0.5Q364.01 0.5 361.01-2.98 358.01-6.45 358.01-13.35L358.01-13.35Q358.01-20.25 361.03-23.78 364.06-27.3 369.06-27.3L369.06-27.3Q372.16-27.3 374.13-26.15 376.11-25 377.36-23.35L377.36-23.35 377.66-23.35Q377.61-24 377.48-25.28 377.36-26.55 377.36-27.3L377.36-27.3 377.36-38 381.76-38 381.76 0 378.21 0 377.56-3.6 377.36-3.6Q376.16-1.9 374.16-0.7 372.16 0.5 369.01 0.5ZM369.71-3.15L369.71-3.15Q373.96-3.15 375.68-5.48 377.41-7.8 377.41-12.5L377.41-12.5 377.41-13.3Q377.41-18.3 375.76-20.98 374.11-23.65 369.66-23.65L369.66-23.65Q366.11-23.65 364.33-20.83 362.56-18 362.56-13.25L362.56-13.25Q362.56-8.45 364.33-5.8 366.11-3.15 369.71-3.15ZM400.41-27.25L400.41-27.25Q405.31-27.25 407.66-25.1 410.01-22.95 410.01-18.25L410.01-18.25 410.01 0 406.81 0 405.96-3.8 405.76-3.8Q404.61-2.35 403.38-1.38 402.16-0.4 400.58 0.05 399.01 0.5 396.76 0.5L396.76 0.5Q393.11 0.5 390.71-1.43 388.31-3.35 388.31-7.45L388.31-7.45Q388.31-11.45 391.46-13.63 394.61-15.8 401.16-16L401.16-16 405.71-16.15 405.71-17.75Q405.71-21.1 404.26-22.4 402.81-23.7 400.16-23.7L400.16-23.7Q398.06-23.7 396.16-23.08 394.26-22.45 392.61-21.65L392.61-21.65 391.26-24.95Q393.01-25.9 395.41-26.58 397.81-27.25 400.41-27.25ZM405.66-13.1L401.71-12.95Q396.71-12.75 394.78-11.35 392.86-9.95 392.86-7.4L392.86-7.4Q392.86-5.15 394.23-4.1 395.61-3.05 397.76-3.05L397.76-3.05Q401.16-3.05 403.41-4.93 405.66-6.8 405.66-10.7L405.66-10.7 405.66-13.1ZM431.2-27.3L431.2-27.3Q436-27.3 438.45-24.98 440.9-22.65 440.9-17.45L440.9-17.45 440.9 0 436.55 0 436.55-17.15Q436.55-20.4 435.1-22 433.65-23.6 430.55-23.6L430.55-23.6Q426.1-23.6 424.4-21.1 422.7-18.6 422.7-13.9L422.7-13.9 422.7 0 418.3 0 418.3-26.8 421.85-26.8 422.5-23.15 422.75-23.15Q423.65-24.55 424.98-25.48 426.3-26.4 427.9-26.85 429.5-27.3 431.2-27.3ZM466.65-7.4L466.65-7.4Q466.65-4.8 465.35-3.05 464.05-1.3 461.65-0.4 459.25 0.5 455.95 0.5L455.95 0.5Q453.15 0.5 451.13 0.05 449.1-0.4 447.55-1.2L447.55-1.2 447.55-5.2Q449.15-4.4 451.43-3.73 453.7-3.05 456.05-3.05L456.05-3.05Q459.4-3.05 460.9-4.13 462.4-5.2 462.4-7L462.4-7Q462.4-8 461.85-8.8 461.3-9.6 459.88-10.4 458.45-11.2 455.8-12.2L455.8-12.2Q453.2-13.2 451.35-14.2 449.5-15.2 448.5-16.6 447.5-18 447.5-20.2L447.5-20.2Q447.5-23.6 450.28-25.45 453.05-27.3 457.55-27.3L457.55-27.3Q460-27.3 462.13-26.83 464.25-26.35 466.1-25.5L466.1-25.5 464.6-22Q462.9-22.7 461.05-23.2 459.2-23.7 457.25-23.7L457.25-23.7Q454.55-23.7 453.13-22.83 451.7-21.95 451.7-20.45L451.7-20.45Q451.7-19.35 452.35-18.57 453-17.8 454.53-17.07 456.05-16.35 458.6-15.35L458.6-15.35Q461.15-14.4 462.95-13.4 464.75-12.4 465.7-10.98 466.65-9.55 466.65-7.4ZM490.55-38L490.55 0 486.15 0 486.15-38 490.55-38ZM509.19-27.25L509.19-27.25Q514.09-27.25 516.44-25.1 518.79-22.95 518.79-18.25L518.79-18.25 518.79 0 515.59 0 514.74-3.8 514.54-3.8Q513.39-2.35 512.17-1.38 510.94-0.4 509.37 0.05 507.79 0.5 505.54 0.5L505.54 0.5Q501.89 0.5 499.49-1.43 497.09-3.35 497.09-7.45L497.09-7.45Q497.09-11.45 500.24-13.63 503.39-15.8 509.94-16L509.94-16 514.49-16.15 514.49-17.75Q514.49-21.1 513.04-22.4 511.59-23.7 508.94-23.7L508.94-23.7Q506.84-23.7 504.94-23.08 503.04-22.45 501.39-21.65L501.39-21.65 500.04-24.95Q501.79-25.9 504.19-26.58 506.59-27.25 509.19-27.25ZM514.44-13.1L510.49-12.95Q505.49-12.75 503.57-11.35 501.64-9.95 501.64-7.4L501.64-7.4Q501.64-5.15 503.02-4.1 504.39-3.05 506.54-3.05L506.54-3.05Q509.94-3.05 512.19-4.93 514.44-6.8 514.44-10.7L514.44-10.7 514.44-13.1ZM550.84 0.5L550.84 0.5Q547.29 0.5 544.51-0.95 541.74-2.4 540.16-5.45 538.59-8.5 538.59-13.25L538.59-13.25Q538.59-18.2 540.24-21.3 541.89-24.4 544.71-25.85 547.54-27.3 551.14-27.3L551.14-27.3Q553.19-27.3 555.09-26.88 556.99-26.45 558.19-25.85L558.19-25.85 556.84-22.2Q555.64-22.65 554.04-23.05 552.44-23.45 551.04-23.45L551.04-23.45Q548.34-23.45 546.59-22.3 544.84-21.15 543.99-18.9 543.14-16.65 543.14-13.3L543.14-13.3Q543.14-10.1 543.99-7.85 544.84-5.6 546.54-4.45 548.24-3.3 550.79-3.3L550.79-3.3Q552.99-3.3 554.66-3.75 556.34-4.2 557.74-4.85L557.74-4.85 557.74-0.95Q556.39-0.25 554.76 0.13 553.14 0.5 550.84 0.5ZM582.08-26.8L586.48-26.8 586.48 0 582.88 0 582.23-3.55 582.03-3.55Q581.18-2.15 579.83-1.25 578.48-0.35 576.88 0.08 575.28 0.5 573.53 0.5L573.53 0.5Q570.33 0.5 568.16-0.53 565.98-1.55 564.88-3.7 563.78-5.85 563.78-9.25L563.78-9.25 563.78-26.8 568.23-26.8 568.23-9.55Q568.23-6.35 569.68-4.75 571.13-3.15 574.18-3.15L574.18-3.15Q578.63-3.15 580.36-5.65 582.08-8.15 582.08-12.85L582.08-12.85 582.08-26.8ZM594.98-26.8L599.38-26.8 599.38 0 594.98 0 594.98-26.8ZM597.23-36.85L597.23-36.85Q598.23-36.85 599.01-36.18 599.78-35.5 599.78-34.05L599.78-34.05Q599.78-32.65 599.01-31.95 598.23-31.25 597.23-31.25L597.23-31.25Q596.13-31.25 595.38-31.95 594.63-32.65 594.63-34.05L594.63-34.05Q594.63-35.5 595.38-36.18 596.13-36.85 597.23-36.85ZM625.33-7.4L625.33-7.4Q625.33-4.8 624.03-3.05 622.73-1.3 620.33-0.4 617.93 0.5 614.63 0.5L614.63 0.5Q611.83 0.5 609.8 0.05 607.78-0.4 606.23-1.2L606.23-1.2 606.23-5.2Q607.83-4.4 610.1-3.73 612.38-3.05 614.73-3.05L614.73-3.05Q618.08-3.05 619.58-4.13 621.08-5.2 621.08-7L621.08-7Q621.08-8 620.53-8.8 619.98-9.6 618.55-10.4 617.13-11.2 614.48-12.2L614.48-12.2Q611.88-13.2 610.03-14.2 608.18-15.2 607.18-16.6 606.18-18 606.18-20.2L606.18-20.2Q606.18-23.6 608.95-25.45 611.73-27.3 616.23-27.3L616.23-27.3Q618.68-27.3 620.8-26.83 622.93-26.35 624.78-25.5L624.78-25.5 623.28-22Q621.58-22.7 619.73-23.2 617.88-23.7 615.93-23.7L615.93-23.7Q613.23-23.7 611.8-22.83 610.38-21.95 610.38-20.45L610.38-20.45Q610.38-19.35 611.03-18.57 611.68-17.8 613.2-17.07 614.73-16.35 617.28-15.35L617.28-15.35Q619.83-14.4 621.63-13.4 623.43-12.4 624.38-10.98 625.33-9.55 625.33-7.4ZM649.28-7.4L649.28-7.4Q649.28-4.8 647.98-3.05 646.68-1.3 644.28-0.4 641.88 0.5 638.58 0.5L638.58 0.5Q635.78 0.5 633.75 0.05 631.73-0.4 630.18-1.2L630.18-1.2 630.18-5.2Q631.78-4.4 634.05-3.73 636.33-3.05 638.68-3.05L638.68-3.05Q642.03-3.05 643.53-4.13 645.03-5.2 645.03-7L645.03-7Q645.03-8 644.48-8.8 643.93-9.6 642.5-10.4 641.08-11.2 638.43-12.2L638.43-12.2Q635.83-13.2 633.98-14.2 632.13-15.2 631.13-16.6 630.13-18 630.13-20.2L630.13-20.2Q630.13-23.6 632.9-25.45 635.68-27.3 640.18-27.3L640.18-27.3Q642.63-27.3 644.75-26.83 646.88-26.35 648.73-25.5L648.73-25.5 647.23-22Q645.53-22.7 643.68-23.2 641.83-23.7 639.88-23.7L639.88-23.7Q637.18-23.7 635.75-22.83 634.33-21.95 634.33-20.45L634.33-20.45Q634.33-19.35 634.98-18.57 635.63-17.8 637.15-17.07 638.68-16.35 641.23-15.35L641.23-15.35Q643.78-14.4 645.58-13.4 647.38-12.4 648.33-10.98 649.28-9.55 649.28-7.4ZM679.07-13.45L679.07-13.45Q679.07-9 677.55-5.88 676.02-2.75 673.22-1.13 670.42 0.5 666.57 0.5L666.57 0.5Q663.02 0.5 660.25-1.13 657.47-2.75 655.87-5.88 654.27-9 654.27-13.45L654.27-13.45Q654.27-20.1 657.62-23.7 660.97-27.3 666.72-27.3L666.72-27.3Q670.37-27.3 673.15-25.68 675.92-24.05 677.5-20.98 679.07-17.9 679.07-13.45ZM658.82-13.45L658.82-13.45Q658.82-10.3 659.65-7.98 660.47-5.65 662.22-4.4 663.97-3.15 666.67-3.15L666.67-3.15Q669.37-3.15 671.12-4.4 672.87-5.65 673.7-7.98 674.52-10.3 674.52-13.45L674.52-13.45Q674.52-16.65 673.67-18.9 672.82-21.15 671.1-22.38 669.37-23.6 666.62-23.6L666.62-23.6Q662.52-23.6 660.67-20.9 658.82-18.2 658.82-13.45ZM698.92-27.3L698.92-27.3Q703.72-27.3 706.17-24.98 708.62-22.65 708.62-17.45L708.62-17.45 708.62 0 704.27 0 704.27-17.15Q704.27-20.4 702.82-22 701.37-23.6 698.27-23.6L698.27-23.6Q693.82-23.6 692.12-21.1 690.42-18.6 690.42-13.9L690.42-13.9 690.42 0 686.02 0 686.02-26.8 689.57-26.8 690.22-23.15 690.47-23.15Q691.37-24.55 692.7-25.48 694.02-26.4 695.62-26.85 697.22-27.3 698.92-27.3ZM716.27-2.7L716.27-2.7Q716.27-4.55 717.17-5.3 718.07-6.05 719.32-6.05L719.32-6.05Q720.62-6.05 721.54-5.3 722.47-4.55 722.47-2.7L722.47-2.7Q722.47-0.9 721.54-0.1 720.62 0.7 719.32 0.7L719.32 0.7Q718.07 0.7 717.17-0.1 716.27-0.9 716.27-2.7ZM729.67-2.7L729.67-2.7Q729.67-4.55 730.57-5.3 731.47-6.05 732.72-6.05L732.72-6.05Q734.02-6.05 734.94-5.3 735.87-4.55 735.87-2.7L735.87-2.7Q735.87-0.9 734.94-0.1 734.02 0.7 732.72 0.7L732.72 0.7Q731.47 0.7 730.57-0.1 729.67-0.9 729.67-2.7ZM743.06-2.7L743.06-2.7Q743.06-4.55 743.96-5.3 744.86-6.05 746.11-6.05L746.11-6.05Q747.41-6.05 748.34-5.3 749.26-4.55 749.26-2.7L749.26-2.7Q749.26-0.9 748.34-0.1 747.41 0.7 746.11 0.7L746.11 0.7Q744.86 0.7 743.96-0.1 743.06-0.9 743.06-2.7ZM793.41-13.45L793.41-13.45Q793.41-9 791.88-5.88 790.36-2.75 787.56-1.13 784.76 0.5 780.91 0.5L780.91 0.5Q777.36 0.5 774.58-1.13 771.81-2.75 770.21-5.88 768.61-9 768.61-13.45L768.61-13.45Q768.61-20.1 771.96-23.7 775.31-27.3 781.06-27.3L781.06-27.3Q784.71-27.3 787.48-25.68 790.26-24.05 791.83-20.98 793.41-17.9 793.41-13.45ZM773.16-13.45L773.16-13.45Q773.16-10.3 773.98-7.98 774.81-5.65 776.56-4.4 778.31-3.15 781.01-3.15L781.01-3.15Q783.71-3.15 785.46-4.4 787.21-5.65 788.03-7.98 788.86-10.3 788.86-13.45L788.86-13.45Q788.86-16.65 788.01-18.9 787.16-21.15 785.43-22.38 783.71-23.6 780.96-23.6L780.96-23.6Q776.86-23.6 775.01-20.9 773.16-18.2 773.16-13.45ZM818.36-26.8L822.76-26.8 822.76 0 819.16 0 818.51-3.55 818.31-3.55Q817.46-2.15 816.11-1.25 814.76-0.35 813.16 0.08 811.56 0.5 809.81 0.5L809.81 0.5Q806.61 0.5 804.43-0.53 802.26-1.55 801.16-3.7 800.06-5.85 800.06-9.25L800.06-9.25 800.06-26.8 804.51-26.8 804.51-9.55Q804.51-6.35 805.96-4.75 807.41-3.15 810.46-3.15L810.46-3.15Q814.91-3.15 816.63-5.65 818.36-8.15 818.36-12.85L818.36-12.85 818.36-26.8ZM857-27.3L857-27.3Q861.95-27.3 864.98-23.85 868-20.4 868-13.45L868-13.45Q868-8.9 866.63-5.78 865.25-2.65 862.78-1.07 860.3 0.5 856.95 0.5L856.95 0.5Q853.85 0.5 851.83-0.68 849.8-1.85 848.65-3.4L848.65-3.4 848.35-3.4Q848.45-2.55 848.55-1.25 848.65 0.05 848.65 1L848.65 1 848.65 12 844.25 12 844.25-26.8 847.85-26.8 848.45-23.15 848.65-23.15Q849.45-24.3 850.58-25.25 851.7-26.2 853.28-26.75 854.85-27.3 857-27.3ZM856.2-23.6L856.2-23.6Q852.1-23.6 850.43-21.3 848.75-19 848.65-14.3L848.65-14.3 848.65-13.45Q848.65-8.5 850.28-5.83 851.9-3.15 856.3-3.15L856.3-3.15Q858.75-3.15 860.33-4.5 861.9-5.85 862.68-8.18 863.45-10.5 863.45-13.5L863.45-13.5Q863.45-18.1 861.68-20.85 859.9-23.6 856.2-23.6ZM885.15-27.25L885.15-27.25Q890.05-27.25 892.4-25.1 894.75-22.95 894.75-18.25L894.75-18.25 894.75 0 891.55 0 890.7-3.8 890.5-3.8Q889.35-2.35 888.12-1.38 886.9-0.4 885.32 0.05 883.75 0.5 881.5 0.5L881.5 0.5Q877.85 0.5 875.45-1.43 873.05-3.35 873.05-7.45L873.05-7.45Q873.05-11.45 876.2-13.63 879.35-15.8 885.9-16L885.9-16 890.45-16.15 890.45-17.75Q890.45-21.1 889-22.4 887.55-23.7 884.9-23.7L884.9-23.7Q882.8-23.7 880.9-23.08 879-22.45 877.35-21.65L877.35-21.65 876-24.95Q877.75-25.9 880.15-26.58 882.55-27.25 885.15-27.25ZM890.4-13.1L886.45-12.95Q881.45-12.75 879.52-11.35 877.6-9.95 877.6-7.4L877.6-7.4Q877.6-5.15 878.97-4.1 880.35-3.05 882.5-3.05L882.5-3.05Q885.9-3.05 888.15-4.93 890.4-6.8 890.4-10.7L890.4-10.7 890.4-13.1ZM920.5-7.4L920.5-7.4Q920.5-4.8 919.2-3.05 917.9-1.3 915.5-0.4 913.1 0.5 909.8 0.5L909.8 0.5Q907 0.5 904.97 0.05 902.95-0.4 901.4-1.2L901.4-1.2 901.4-5.2Q903-4.4 905.27-3.73 907.55-3.05 909.9-3.05L909.9-3.05Q913.25-3.05 914.75-4.13 916.25-5.2 916.25-7L916.25-7Q916.25-8 915.7-8.8 915.15-9.6 913.72-10.4 912.3-11.2 909.65-12.2L909.65-12.2Q907.05-13.2 905.2-14.2 903.35-15.2 902.35-16.6 901.35-18 901.35-20.2L901.35-20.2Q901.35-23.6 904.12-25.45 906.9-27.3 911.4-27.3L911.4-27.3Q913.85-27.3 915.97-26.83 918.1-26.35 919.95-25.5L919.95-25.5 918.45-22Q916.75-22.7 914.9-23.2 913.05-23.7 911.1-23.7L911.1-23.7Q908.4-23.7 906.97-22.83 905.55-21.95 905.55-20.45L905.55-20.45Q905.55-19.35 906.2-18.57 906.85-17.8 908.37-17.07 909.9-16.35 912.45-15.35L912.45-15.35Q915-14.4 916.8-13.4 918.6-12.4 919.55-10.98 920.5-9.55 920.5-7.4ZM945.14-35.7L943.89-10.05 941.04-10.05 939.79-35.7 945.14-35.7ZM939.34-2.7L939.34-2.7Q939.34-4.55 940.24-5.3 941.14-6.05 942.44-6.05L942.44-6.05Q943.69-6.05 944.62-5.3 945.54-4.55 945.54-2.7L945.54-2.7Q945.54-0.9 944.62-0.1 943.69 0.7 942.44 0.7L942.44 0.7Q941.14 0.7 940.24-0.1 939.34-0.9 939.34-2.7Z" opacity="1" transform="matrix(1,0,0,1,0,0)" fill="black" class="slogan-text-1" id="SvgjsPath3002" stroke-width="7" stroke="black" stroke-linejoin="round"></path></svg></g></svg></g></svg></g></svg></g><g></g></svg></g></svg></g></svg></g></mask><g transform="matrix(1,0,0,1,39.55199999999999,69.73954160774416)"><svg viewBox="0 0 316.416 107.72091678451167" height="107.72091678451167" width="316.416"><g><svg viewBox="0 0 316.416 107.72091678451167" height="107.72091678451167" width="316.416"><g><svg viewBox="0 0 316.416 107.72091678451167" height="107.72091678451167" width="316.416"><g><svg viewBox="0 0 316.416 107.72091678451167" height="107.72091678451167" width="316.416"><g id="textblocktransform"><svg viewBox="0 0 316.416 107.72091678451167" height="107.72091678451167" width="316.416" id="textblock"><g><svg viewBox="0 0 316.416 74.3658340048348" height="74.3658340048348" width="316.416"><g transform="matrix(1,0,0,1,0,0)"><svg width="316.416" viewBox="-0.9500000000000002 -40.25 187.14 44.75" height="74.3658340048348" data-palette-color="#2ea673"><path d="M36-17.9L36-17.9Q36-12.35 34.13-8.22 32.25-4.1 28.6-1.8 24.95 0.5 19.55 0.5L19.55 0.5Q14 0.5 10.33-1.8 6.65-4.1 4.85-8.25 3.05-12.4 3.05-17.95L3.05-17.95Q3.05-23.45 4.85-27.55 6.65-31.65 10.33-33.95 14-36.25 19.6-36.25L19.6-36.25Q24.95-36.25 28.6-33.98 32.25-31.7 34.13-27.58 36-23.45 36-17.9ZM7.8-17.9L7.8-17.9Q7.8-13.4 9.05-10.15 10.3-6.9 12.93-5.15 15.55-3.4 19.55-3.4L19.55-3.4Q23.6-3.4 26.18-5.15 28.75-6.9 30-10.15 31.25-13.4 31.25-17.9L31.25-17.9Q31.25-24.65 28.45-28.48 25.65-32.3 19.6-32.3L19.6-32.3Q15.55-32.3 12.93-30.58 10.3-28.85 9.05-25.63 7.8-22.4 7.8-17.9ZM42.3-35.7L47.05-35.7 46.05-22.8 43.3-22.8 42.3-35.7ZM59.65-15.15L59.65 0 55.15 0 55.15-35.7 75.1-35.7 75.1-31.75 59.65-31.75 59.65-19.1 74.15-19.1 74.15-15.15 59.65-15.15ZM112.24-17.9L112.24-17.9Q112.24-12.35 110.37-8.22 108.49-4.1 104.84-1.8 101.19 0.5 95.79 0.5L95.79 0.5Q90.24 0.5 86.57-1.8 82.89-4.1 81.09-8.25 79.29-12.4 79.29-17.95L79.29-17.95Q79.29-23.45 81.09-27.55 82.89-31.65 86.57-33.95 90.24-36.25 95.84-36.25L95.84-36.25Q101.19-36.25 104.84-33.98 108.49-31.7 110.37-27.58 112.24-23.45 112.24-17.9ZM84.04-17.9L84.04-17.9Q84.04-13.4 85.29-10.15 86.54-6.9 89.17-5.15 91.79-3.4 95.79-3.4L95.79-3.4Q99.84-3.4 102.42-5.15 104.99-6.9 106.24-10.15 107.49-13.4 107.49-17.9L107.49-17.9Q107.49-24.65 104.69-28.48 101.89-32.3 95.84-32.3L95.84-32.3Q91.79-32.3 89.17-30.58 86.54-28.85 85.29-25.63 84.04-22.4 84.04-17.9ZM147.29-35.7L147.29-12.6Q147.29-8.9 145.79-5.93 144.29-2.95 141.22-1.23 138.14 0.5 133.39 0.5L133.39 0.5Q126.74 0.5 123.27-3.13 119.79-6.75 119.79-12.7L119.79-12.7 119.79-35.7 124.29-35.7 124.29-12.55Q124.29-8.2 126.62-5.8 128.94-3.4 133.64-3.4L133.64-3.4Q138.49-3.4 140.67-5.98 142.84-8.55 142.84-12.6L142.84-12.6 142.84-35.7 147.29-35.7ZM156.69-35.7L166.54-35.7Q170.99-35.7 173.86-34.58 176.74-33.45 178.14-31.2 179.54-28.95 179.54-25.55L179.54-25.55Q179.54-22.7 178.49-20.8 177.44-18.9 175.81-17.78 174.19-16.65 172.39-16L172.39-16 182.19 0 176.94 0 168.29-14.75 161.19-14.75 161.19 0 156.69 0 156.69-35.7ZM166.29-31.8L166.29-31.8 161.19-31.8 161.19-18.55 166.54-18.55Q170.89-18.55 172.89-20.28 174.89-22 174.89-25.35L174.89-25.35Q174.89-27.7 173.96-29.1 173.04-30.5 171.14-31.15 169.24-31.8 166.29-31.8Z" opacity="1" transform="matrix(1,0,0,1,0,0)" fill="#2ea673" class="wordmark-text-0" data-fill-palette-color="primary" id="text-0"></path></svg></g></svg></g><g transform="matrix(1,0,0,1,3.5,89.11286445279612)"><svg viewBox="0 0 309.416 18.60805233171555" height="18.60805233171555" width="309.416"><g transform="matrix(1,0,0,1,0,0)"><svg width="309.416" viewBox="0.8499999999999996 -42 948.6899999999999 58" height="18.60805233171555" data-palette-color="#2ea673"><path d="M24.95 0L4.85 0 4.85-35.7 9.35-35.7 9.35-4 24.95-4 24.95 0ZM40.8-27.3L40.8-27.3Q44.25-27.3 46.72-25.8 49.2-24.3 50.52-21.58 51.85-18.85 51.85-15.2L51.85-15.2 51.85-12.55 33.5-12.55Q33.6-8 35.82-5.63 38.05-3.25 42.05-3.25L42.05-3.25Q44.6-3.25 46.57-3.73 48.55-4.2 50.65-5.1L50.65-5.1 50.65-1.25Q48.6-0.35 46.6 0.08 44.6 0.5 41.85 0.5L41.85 0.5Q38.05 0.5 35.12-1.05 32.2-2.6 30.57-5.68 28.95-8.75 28.95-13.2L28.95-13.2Q28.95-17.6 30.42-20.75 31.9-23.9 34.57-25.6 37.25-27.3 40.8-27.3ZM40.75-23.7L40.75-23.7Q37.6-23.7 35.77-21.68 33.95-19.65 33.6-16.05L33.6-16.05 47.25-16.05Q47.2-19.45 45.65-21.58 44.1-23.7 40.75-23.7ZM89.09-7.4L89.09-7.4Q89.09-4.8 87.79-3.05 86.49-1.3 84.09-0.4 81.69 0.5 78.39 0.5L78.39 0.5Q75.59 0.5 73.57 0.05 71.54-0.4 69.99-1.2L69.99-1.2 69.99-5.2Q71.59-4.4 73.87-3.73 76.14-3.05 78.49-3.05L78.49-3.05Q81.84-3.05 83.34-4.13 84.84-5.2 84.84-7L84.84-7Q84.84-8 84.29-8.8 83.74-9.6 82.32-10.4 80.89-11.2 78.24-12.2L78.24-12.2Q75.64-13.2 73.79-14.2 71.94-15.2 70.94-16.6 69.94-18 69.94-20.2L69.94-20.2Q69.94-23.6 72.72-25.45 75.49-27.3 79.99-27.3L79.99-27.3Q82.44-27.3 84.57-26.83 86.69-26.35 88.54-25.5L88.54-25.5 87.04-22Q85.34-22.7 83.49-23.2 81.64-23.7 79.69-23.7L79.69-23.7Q76.99-23.7 75.57-22.83 74.14-21.95 74.14-20.45L74.14-20.45Q74.14-19.35 74.79-18.57 75.44-17.8 76.97-17.07 78.49-16.35 81.04-15.35L81.04-15.35Q83.59-14.4 85.39-13.4 87.19-12.4 88.14-10.98 89.09-9.55 89.09-7.4ZM105.94-27.3L105.94-27.3Q109.39-27.3 111.87-25.8 114.34-24.3 115.67-21.58 116.99-18.85 116.99-15.2L116.99-15.2 116.99-12.55 98.64-12.55Q98.74-8 100.97-5.63 103.19-3.25 107.19-3.25L107.19-3.25Q109.74-3.25 111.72-3.73 113.69-4.2 115.79-5.1L115.79-5.1 115.79-1.25Q113.74-0.35 111.74 0.08 109.74 0.5 106.99 0.5L106.99 0.5Q103.19 0.5 100.27-1.05 97.34-2.6 95.72-5.68 94.09-8.75 94.09-13.2L94.09-13.2Q94.09-17.6 95.57-20.75 97.04-23.9 99.72-25.6 102.39-27.3 105.94-27.3ZM105.89-23.7L105.89-23.7Q102.74-23.7 100.92-21.68 99.09-19.65 98.74-16.05L98.74-16.05 112.39-16.05Q112.34-19.45 110.79-21.58 109.24-23.7 105.89-23.7ZM134.54 0.5L134.54 0.5Q130.99 0.5 128.21-0.95 125.44-2.4 123.86-5.45 122.29-8.5 122.29-13.25L122.29-13.25Q122.29-18.2 123.94-21.3 125.59-24.4 128.41-25.85 131.24-27.3 134.84-27.3L134.84-27.3Q136.89-27.3 138.79-26.88 140.69-26.45 141.89-25.85L141.89-25.85 140.54-22.2Q139.34-22.65 137.74-23.05 136.14-23.45 134.74-23.45L134.74-23.45Q132.04-23.45 130.29-22.3 128.54-21.15 127.69-18.9 126.84-16.65 126.84-13.3L126.84-13.3Q126.84-10.1 127.69-7.85 128.54-5.6 130.24-4.45 131.94-3.3 134.49-3.3L134.49-3.3Q136.69-3.3 138.36-3.75 140.04-4.2 141.44-4.85L141.44-4.85 141.44-0.95Q140.09-0.25 138.46 0.13 136.84 0.5 134.54 0.5ZM160.29-27.3L160.29-27.3Q161.04-27.3 161.91-27.23 162.79-27.15 163.44-27L163.44-27 162.89-22.95Q162.24-23.1 161.46-23.2 160.69-23.3 159.99-23.3L159.99-23.3Q157.94-23.3 156.14-22.18 154.34-21.05 153.26-19.03 152.19-17 152.19-14.3L152.19-14.3 152.19 0 147.79 0 147.79-26.8 151.39-26.8 151.89-21.9 152.09-21.9Q153.39-24.1 155.44-25.7 157.49-27.3 160.29-27.3ZM178.78-27.3L178.78-27.3Q182.23-27.3 184.71-25.8 187.18-24.3 188.51-21.58 189.83-18.85 189.83-15.2L189.83-15.2 189.83-12.55 171.48-12.55Q171.58-8 173.81-5.63 176.03-3.25 180.03-3.25L180.03-3.25Q182.58-3.25 184.56-3.73 186.53-4.2 188.63-5.1L188.63-5.1 188.63-1.25Q186.58-0.35 184.58 0.08 182.58 0.5 179.83 0.5L179.83 0.5Q176.03 0.5 173.11-1.05 170.18-2.6 168.56-5.68 166.93-8.75 166.93-13.2L166.93-13.2Q166.93-17.6 168.41-20.75 169.88-23.9 172.56-25.6 175.23-27.3 178.78-27.3ZM178.73-23.7L178.73-23.7Q175.58-23.7 173.76-21.68 171.93-19.65 171.58-16.05L171.58-16.05 185.23-16.05Q185.18-19.45 183.63-21.58 182.08-23.7 178.73-23.7ZM205.58-3.1L205.58-3.1Q206.58-3.1 207.63-3.28 208.68-3.45 209.33-3.65L209.33-3.65 209.33-0.3Q208.63 0.05 207.33 0.28 206.03 0.5 204.83 0.5L204.83 0.5Q202.73 0.5 200.96-0.23 199.18-0.95 198.08-2.75 196.98-4.55 196.98-7.8L196.98-7.8 196.98-23.4 193.18-23.4 193.18-25.5 197.03-27.25 198.78-32.95 201.38-32.95 201.38-26.8 209.13-26.8 209.13-23.4 201.38-23.4 201.38-7.9Q201.38-5.45 202.56-4.28 203.73-3.1 205.58-3.1ZM219.68-5.8L220.03-5.25Q219.58-3.5 218.88-1.45 218.18 0.6 217.35 2.63 216.53 4.65 215.73 6.45L215.73 6.45 212.48 6.45Q212.98 4.55 213.45 2.38 213.93 0.2 214.33-1.93 214.73-4.05 214.98-5.8L214.98-5.8 219.68-5.8ZM251.82 0.5L251.82 0.5Q248.27 0.5 245.5-0.95 242.72-2.4 241.15-5.45 239.57-8.5 239.57-13.25L239.57-13.25Q239.57-18.2 241.22-21.3 242.87-24.4 245.7-25.85 248.52-27.3 252.12-27.3L252.12-27.3Q254.17-27.3 256.07-26.88 257.97-26.45 259.17-25.85L259.17-25.85 257.82-22.2Q256.62-22.65 255.02-23.05 253.42-23.45 252.02-23.45L252.02-23.45Q249.32-23.45 247.57-22.3 245.82-21.15 244.97-18.9 244.12-16.65 244.12-13.3L244.12-13.3Q244.12-10.1 244.97-7.85 245.82-5.6 247.52-4.45 249.22-3.3 251.77-3.3L251.77-3.3Q253.97-3.3 255.65-3.75 257.32-4.2 258.72-4.85L258.72-4.85 258.72-0.95Q257.37-0.25 255.75 0.13 254.12 0.5 251.82 0.5ZM264.07-35.7L268.82-35.7 267.82-22.8 265.07-22.8 264.07-35.7ZM286.67-27.3L286.67-27.3Q290.12-27.3 292.59-25.8 295.07-24.3 296.39-21.58 297.72-18.85 297.72-15.2L297.72-15.2 297.72-12.55 279.37-12.55Q279.47-8 281.69-5.63 283.92-3.25 287.92-3.25L287.92-3.25Q290.47-3.25 292.44-3.73 294.42-4.2 296.52-5.1L296.52-5.1 296.52-1.25Q294.47-0.35 292.47 0.08 290.47 0.5 287.72 0.5L287.72 0.5Q283.92 0.5 280.99-1.05 278.07-2.6 276.44-5.68 274.82-8.75 274.82-13.2L274.82-13.2Q274.82-17.6 276.29-20.75 277.77-23.9 280.44-25.6 283.12-27.3 286.67-27.3ZM286.62-23.7L286.62-23.7Q283.47-23.7 281.64-21.68 279.82-19.65 279.47-16.05L279.47-16.05 293.12-16.05Q293.07-19.45 291.52-21.58 289.97-23.7 286.62-23.7ZM321.97-7.4L321.97-7.4Q321.97-4.8 320.67-3.05 319.37-1.3 316.97-0.4 314.57 0.5 311.27 0.5L311.27 0.5Q308.47 0.5 306.44 0.05 304.42-0.4 302.87-1.2L302.87-1.2 302.87-5.2Q304.47-4.4 306.74-3.73 309.02-3.05 311.37-3.05L311.37-3.05Q314.72-3.05 316.22-4.13 317.72-5.2 317.72-7L317.72-7Q317.72-8 317.17-8.8 316.62-9.6 315.19-10.4 313.77-11.2 311.12-12.2L311.12-12.2Q308.52-13.2 306.67-14.2 304.82-15.2 303.82-16.6 302.82-18 302.82-20.2L302.82-20.2Q302.82-23.6 305.59-25.45 308.37-27.3 312.87-27.3L312.87-27.3Q315.32-27.3 317.44-26.83 319.57-26.35 321.42-25.5L321.42-25.5 319.92-22Q318.22-22.7 316.37-23.2 314.52-23.7 312.57-23.7L312.57-23.7Q309.87-23.7 308.44-22.83 307.02-21.95 307.02-20.45L307.02-20.45Q307.02-19.35 307.67-18.57 308.32-17.8 309.84-17.07 311.37-16.35 313.92-15.35L313.92-15.35Q316.47-14.4 318.27-13.4 320.07-12.4 321.02-10.98 321.97-9.55 321.97-7.4ZM337.41-3.1L337.41-3.1Q338.41-3.1 339.46-3.28 340.51-3.45 341.16-3.65L341.16-3.65 341.16-0.3Q340.46 0.05 339.16 0.28 337.86 0.5 336.66 0.5L336.66 0.5Q334.56 0.5 332.79-0.23 331.01-0.95 329.91-2.75 328.81-4.55 328.81-7.8L328.81-7.8 328.81-23.4 325.01-23.4 325.01-25.5 328.86-27.25 330.61-32.95 333.21-32.95 333.21-26.8 340.96-26.8 340.96-23.4 333.21-23.4 333.21-7.9Q333.21-5.45 334.39-4.28 335.56-3.1 337.41-3.1ZM369.01 0.5L369.01 0.5Q364.01 0.5 361.01-2.98 358.01-6.45 358.01-13.35L358.01-13.35Q358.01-20.25 361.03-23.78 364.06-27.3 369.06-27.3L369.06-27.3Q372.16-27.3 374.13-26.15 376.11-25 377.36-23.35L377.36-23.35 377.66-23.35Q377.61-24 377.48-25.28 377.36-26.55 377.36-27.3L377.36-27.3 377.36-38 381.76-38 381.76 0 378.21 0 377.56-3.6 377.36-3.6Q376.16-1.9 374.16-0.7 372.16 0.5 369.01 0.5ZM369.71-3.15L369.71-3.15Q373.96-3.15 375.68-5.48 377.41-7.8 377.41-12.5L377.41-12.5 377.41-13.3Q377.41-18.3 375.76-20.98 374.11-23.65 369.66-23.65L369.66-23.65Q366.11-23.65 364.33-20.83 362.56-18 362.56-13.25L362.56-13.25Q362.56-8.45 364.33-5.8 366.11-3.15 369.71-3.15ZM400.41-27.25L400.41-27.25Q405.31-27.25 407.66-25.1 410.01-22.95 410.01-18.25L410.01-18.25 410.01 0 406.81 0 405.96-3.8 405.76-3.8Q404.61-2.35 403.38-1.38 402.16-0.4 400.58 0.05 399.01 0.5 396.76 0.5L396.76 0.5Q393.11 0.5 390.71-1.43 388.31-3.35 388.31-7.45L388.31-7.45Q388.31-11.45 391.46-13.63 394.61-15.8 401.16-16L401.16-16 405.71-16.15 405.71-17.75Q405.71-21.1 404.26-22.4 402.81-23.7 400.16-23.7L400.16-23.7Q398.06-23.7 396.16-23.08 394.26-22.45 392.61-21.65L392.61-21.65 391.26-24.95Q393.01-25.9 395.41-26.58 397.81-27.25 400.41-27.25ZM405.66-13.1L401.71-12.95Q396.71-12.75 394.78-11.35 392.86-9.95 392.86-7.4L392.86-7.4Q392.86-5.15 394.23-4.1 395.61-3.05 397.76-3.05L397.76-3.05Q401.16-3.05 403.41-4.93 405.66-6.8 405.66-10.7L405.66-10.7 405.66-13.1ZM431.2-27.3L431.2-27.3Q436-27.3 438.45-24.98 440.9-22.65 440.9-17.45L440.9-17.45 440.9 0 436.55 0 436.55-17.15Q436.55-20.4 435.1-22 433.65-23.6 430.55-23.6L430.55-23.6Q426.1-23.6 424.4-21.1 422.7-18.6 422.7-13.9L422.7-13.9 422.7 0 418.3 0 418.3-26.8 421.85-26.8 422.5-23.15 422.75-23.15Q423.65-24.55 424.98-25.48 426.3-26.4 427.9-26.85 429.5-27.3 431.2-27.3ZM466.65-7.4L466.65-7.4Q466.65-4.8 465.35-3.05 464.05-1.3 461.65-0.4 459.25 0.5 455.95 0.5L455.95 0.5Q453.15 0.5 451.13 0.05 449.1-0.4 447.55-1.2L447.55-1.2 447.55-5.2Q449.15-4.4 451.43-3.73 453.7-3.05 456.05-3.05L456.05-3.05Q459.4-3.05 460.9-4.13 462.4-5.2 462.4-7L462.4-7Q462.4-8 461.85-8.8 461.3-9.6 459.88-10.4 458.45-11.2 455.8-12.2L455.8-12.2Q453.2-13.2 451.35-14.2 449.5-15.2 448.5-16.6 447.5-18 447.5-20.2L447.5-20.2Q447.5-23.6 450.28-25.45 453.05-27.3 457.55-27.3L457.55-27.3Q460-27.3 462.13-26.83 464.25-26.35 466.1-25.5L466.1-25.5 464.6-22Q462.9-22.7 461.05-23.2 459.2-23.7 457.25-23.7L457.25-23.7Q454.55-23.7 453.13-22.83 451.7-21.95 451.7-20.45L451.7-20.45Q451.7-19.35 452.35-18.57 453-17.8 454.53-17.07 456.05-16.35 458.6-15.35L458.6-15.35Q461.15-14.4 462.95-13.4 464.75-12.4 465.7-10.98 466.65-9.55 466.65-7.4ZM490.55-38L490.55 0 486.15 0 486.15-38 490.55-38ZM509.19-27.25L509.19-27.25Q514.09-27.25 516.44-25.1 518.79-22.95 518.79-18.25L518.79-18.25 518.79 0 515.59 0 514.74-3.8 514.54-3.8Q513.39-2.35 512.17-1.38 510.94-0.4 509.37 0.05 507.79 0.5 505.54 0.5L505.54 0.5Q501.89 0.5 499.49-1.43 497.09-3.35 497.09-7.45L497.09-7.45Q497.09-11.45 500.24-13.63 503.39-15.8 509.94-16L509.94-16 514.49-16.15 514.49-17.75Q514.49-21.1 513.04-22.4 511.59-23.7 508.94-23.7L508.94-23.7Q506.84-23.7 504.94-23.08 503.04-22.45 501.39-21.65L501.39-21.65 500.04-24.95Q501.79-25.9 504.19-26.58 506.59-27.25 509.19-27.25ZM514.44-13.1L510.49-12.95Q505.49-12.75 503.57-11.35 501.64-9.95 501.64-7.4L501.64-7.4Q501.64-5.15 503.02-4.1 504.39-3.05 506.54-3.05L506.54-3.05Q509.94-3.05 512.19-4.93 514.44-6.8 514.44-10.7L514.44-10.7 514.44-13.1ZM550.84 0.5L550.84 0.5Q547.29 0.5 544.51-0.95 541.74-2.4 540.16-5.45 538.59-8.5 538.59-13.25L538.59-13.25Q538.59-18.2 540.24-21.3 541.89-24.4 544.71-25.85 547.54-27.3 551.14-27.3L551.14-27.3Q553.19-27.3 555.09-26.88 556.99-26.45 558.19-25.85L558.19-25.85 556.84-22.2Q555.64-22.65 554.04-23.05 552.44-23.45 551.04-23.45L551.04-23.45Q548.34-23.45 546.59-22.3 544.84-21.15 543.99-18.9 543.14-16.65 543.14-13.3L543.14-13.3Q543.14-10.1 543.99-7.85 544.84-5.6 546.54-4.45 548.24-3.3 550.79-3.3L550.79-3.3Q552.99-3.3 554.66-3.75 556.34-4.2 557.74-4.85L557.74-4.85 557.74-0.95Q556.39-0.25 554.76 0.13 553.14 0.5 550.84 0.5ZM582.08-26.8L586.48-26.8 586.48 0 582.88 0 582.23-3.55 582.03-3.55Q581.18-2.15 579.83-1.25 578.48-0.35 576.88 0.08 575.28 0.5 573.53 0.5L573.53 0.5Q570.33 0.5 568.16-0.53 565.98-1.55 564.88-3.7 563.78-5.85 563.78-9.25L563.78-9.25 563.78-26.8 568.23-26.8 568.23-9.55Q568.23-6.35 569.68-4.75 571.13-3.15 574.18-3.15L574.18-3.15Q578.63-3.15 580.36-5.65 582.08-8.15 582.08-12.85L582.08-12.85 582.08-26.8ZM594.98-26.8L599.38-26.8 599.38 0 594.98 0 594.98-26.8ZM597.23-36.85L597.23-36.85Q598.23-36.85 599.01-36.18 599.78-35.5 599.78-34.05L599.78-34.05Q599.78-32.65 599.01-31.95 598.23-31.25 597.23-31.25L597.23-31.25Q596.13-31.25 595.38-31.95 594.63-32.65 594.63-34.05L594.63-34.05Q594.63-35.5 595.38-36.18 596.13-36.85 597.23-36.85ZM625.33-7.4L625.33-7.4Q625.33-4.8 624.03-3.05 622.73-1.3 620.33-0.4 617.93 0.5 614.63 0.5L614.63 0.5Q611.83 0.5 609.8 0.05 607.78-0.4 606.23-1.2L606.23-1.2 606.23-5.2Q607.83-4.4 610.1-3.73 612.38-3.05 614.73-3.05L614.73-3.05Q618.08-3.05 619.58-4.13 621.08-5.2 621.08-7L621.08-7Q621.08-8 620.53-8.8 619.98-9.6 618.55-10.4 617.13-11.2 614.48-12.2L614.48-12.2Q611.88-13.2 610.03-14.2 608.18-15.2 607.18-16.6 606.18-18 606.18-20.2L606.18-20.2Q606.18-23.6 608.95-25.45 611.73-27.3 616.23-27.3L616.23-27.3Q618.68-27.3 620.8-26.83 622.93-26.35 624.78-25.5L624.78-25.5 623.28-22Q621.58-22.7 619.73-23.2 617.88-23.7 615.93-23.7L615.93-23.7Q613.23-23.7 611.8-22.83 610.38-21.95 610.38-20.45L610.38-20.45Q610.38-19.35 611.03-18.57 611.68-17.8 613.2-17.07 614.73-16.35 617.28-15.35L617.28-15.35Q619.83-14.4 621.63-13.4 623.43-12.4 624.38-10.98 625.33-9.55 625.33-7.4ZM649.28-7.4L649.28-7.4Q649.28-4.8 647.98-3.05 646.68-1.3 644.28-0.4 641.88 0.5 638.58 0.5L638.58 0.5Q635.78 0.5 633.75 0.05 631.73-0.4 630.18-1.2L630.18-1.2 630.18-5.2Q631.78-4.4 634.05-3.73 636.33-3.05 638.68-3.05L638.68-3.05Q642.03-3.05 643.53-4.13 645.03-5.2 645.03-7L645.03-7Q645.03-8 644.48-8.8 643.93-9.6 642.5-10.4 641.08-11.2 638.43-12.2L638.43-12.2Q635.83-13.2 633.98-14.2 632.13-15.2 631.13-16.6 630.13-18 630.13-20.2L630.13-20.2Q630.13-23.6 632.9-25.45 635.68-27.3 640.18-27.3L640.18-27.3Q642.63-27.3 644.75-26.83 646.88-26.35 648.73-25.5L648.73-25.5 647.23-22Q645.53-22.7 643.68-23.2 641.83-23.7 639.88-23.7L639.88-23.7Q637.18-23.7 635.75-22.83 634.33-21.95 634.33-20.45L634.33-20.45Q634.33-19.35 634.98-18.57 635.63-17.8 637.15-17.07 638.68-16.35 641.23-15.35L641.23-15.35Q643.78-14.4 645.58-13.4 647.38-12.4 648.33-10.98 649.28-9.55 649.28-7.4ZM679.07-13.45L679.07-13.45Q679.07-9 677.55-5.88 676.02-2.75 673.22-1.13 670.42 0.5 666.57 0.5L666.57 0.5Q663.02 0.5 660.25-1.13 657.47-2.75 655.87-5.88 654.27-9 654.27-13.45L654.27-13.45Q654.27-20.1 657.62-23.7 660.97-27.3 666.72-27.3L666.72-27.3Q670.37-27.3 673.15-25.68 675.92-24.05 677.5-20.98 679.07-17.9 679.07-13.45ZM658.82-13.45L658.82-13.45Q658.82-10.3 659.65-7.98 660.47-5.65 662.22-4.4 663.97-3.15 666.67-3.15L666.67-3.15Q669.37-3.15 671.12-4.4 672.87-5.65 673.7-7.98 674.52-10.3 674.52-13.45L674.52-13.45Q674.52-16.65 673.67-18.9 672.82-21.15 671.1-22.38 669.37-23.6 666.62-23.6L666.62-23.6Q662.52-23.6 660.67-20.9 658.82-18.2 658.82-13.45ZM698.92-27.3L698.92-27.3Q703.72-27.3 706.17-24.98 708.62-22.65 708.62-17.45L708.62-17.45 708.62 0 704.27 0 704.27-17.15Q704.27-20.4 702.82-22 701.37-23.6 698.27-23.6L698.27-23.6Q693.82-23.6 692.12-21.1 690.42-18.6 690.42-13.9L690.42-13.9 690.42 0 686.02 0 686.02-26.8 689.57-26.8 690.22-23.15 690.47-23.15Q691.37-24.55 692.7-25.48 694.02-26.4 695.62-26.85 697.22-27.3 698.92-27.3ZM716.27-2.7L716.27-2.7Q716.27-4.55 717.17-5.3 718.07-6.05 719.32-6.05L719.32-6.05Q720.62-6.05 721.54-5.3 722.47-4.55 722.47-2.7L722.47-2.7Q722.47-0.9 721.54-0.1 720.62 0.7 719.32 0.7L719.32 0.7Q718.07 0.7 717.17-0.1 716.27-0.9 716.27-2.7ZM729.67-2.7L729.67-2.7Q729.67-4.55 730.57-5.3 731.47-6.05 732.72-6.05L732.72-6.05Q734.02-6.05 734.94-5.3 735.87-4.55 735.87-2.7L735.87-2.7Q735.87-0.9 734.94-0.1 734.02 0.7 732.72 0.7L732.72 0.7Q731.47 0.7 730.57-0.1 729.67-0.9 729.67-2.7ZM743.06-2.7L743.06-2.7Q743.06-4.55 743.96-5.3 744.86-6.05 746.11-6.05L746.11-6.05Q747.41-6.05 748.34-5.3 749.26-4.55 749.26-2.7L749.26-2.7Q749.26-0.9 748.34-0.1 747.41 0.7 746.11 0.7L746.11 0.7Q744.86 0.7 743.96-0.1 743.06-0.9 743.06-2.7ZM793.41-13.45L793.41-13.45Q793.41-9 791.88-5.88 790.36-2.75 787.56-1.13 784.76 0.5 780.91 0.5L780.91 0.5Q777.36 0.5 774.58-1.13 771.81-2.75 770.21-5.88 768.61-9 768.61-13.45L768.61-13.45Q768.61-20.1 771.96-23.7 775.31-27.3 781.06-27.3L781.06-27.3Q784.71-27.3 787.48-25.68 790.26-24.05 791.83-20.98 793.41-17.9 793.41-13.45ZM773.16-13.45L773.16-13.45Q773.16-10.3 773.98-7.98 774.81-5.65 776.56-4.4 778.31-3.15 781.01-3.15L781.01-3.15Q783.71-3.15 785.46-4.4 787.21-5.65 788.03-7.98 788.86-10.3 788.86-13.45L788.86-13.45Q788.86-16.65 788.01-18.9 787.16-21.15 785.43-22.38 783.71-23.6 780.96-23.6L780.96-23.6Q776.86-23.6 775.01-20.9 773.16-18.2 773.16-13.45ZM818.36-26.8L822.76-26.8 822.76 0 819.16 0 818.51-3.55 818.31-3.55Q817.46-2.15 816.11-1.25 814.76-0.35 813.16 0.08 811.56 0.5 809.81 0.5L809.81 0.5Q806.61 0.5 804.43-0.53 802.26-1.55 801.16-3.7 800.06-5.85 800.06-9.25L800.06-9.25 800.06-26.8 804.51-26.8 804.51-9.55Q804.51-6.35 805.96-4.75 807.41-3.15 810.46-3.15L810.46-3.15Q814.91-3.15 816.63-5.65 818.36-8.15 818.36-12.85L818.36-12.85 818.36-26.8ZM857-27.3L857-27.3Q861.95-27.3 864.98-23.85 868-20.4 868-13.45L868-13.45Q868-8.9 866.63-5.78 865.25-2.65 862.78-1.07 860.3 0.5 856.95 0.5L856.95 0.5Q853.85 0.5 851.83-0.68 849.8-1.85 848.65-3.4L848.65-3.4 848.35-3.4Q848.45-2.55 848.55-1.25 848.65 0.05 848.65 1L848.65 1 848.65 12 844.25 12 844.25-26.8 847.85-26.8 848.45-23.15 848.65-23.15Q849.45-24.3 850.58-25.25 851.7-26.2 853.28-26.75 854.85-27.3 857-27.3ZM856.2-23.6L856.2-23.6Q852.1-23.6 850.43-21.3 848.75-19 848.65-14.3L848.65-14.3 848.65-13.45Q848.65-8.5 850.28-5.83 851.9-3.15 856.3-3.15L856.3-3.15Q858.75-3.15 860.33-4.5 861.9-5.85 862.68-8.18 863.45-10.5 863.45-13.5L863.45-13.5Q863.45-18.1 861.68-20.85 859.9-23.6 856.2-23.6ZM885.15-27.25L885.15-27.25Q890.05-27.25 892.4-25.1 894.75-22.95 894.75-18.25L894.75-18.25 894.75 0 891.55 0 890.7-3.8 890.5-3.8Q889.35-2.35 888.12-1.38 886.9-0.4 885.32 0.05 883.75 0.5 881.5 0.5L881.5 0.5Q877.85 0.5 875.45-1.43 873.05-3.35 873.05-7.45L873.05-7.45Q873.05-11.45 876.2-13.63 879.35-15.8 885.9-16L885.9-16 890.45-16.15 890.45-17.75Q890.45-21.1 889-22.4 887.55-23.7 884.9-23.7L884.9-23.7Q882.8-23.7 880.9-23.08 879-22.45 877.35-21.65L877.35-21.65 876-24.95Q877.75-25.9 880.15-26.58 882.55-27.25 885.15-27.25ZM890.4-13.1L886.45-12.95Q881.45-12.75 879.52-11.35 877.6-9.95 877.6-7.4L877.6-7.4Q877.6-5.15 878.97-4.1 880.35-3.05 882.5-3.05L882.5-3.05Q885.9-3.05 888.15-4.93 890.4-6.8 890.4-10.7L890.4-10.7 890.4-13.1ZM920.5-7.4L920.5-7.4Q920.5-4.8 919.2-3.05 917.9-1.3 915.5-0.4 913.1 0.5 909.8 0.5L909.8 0.5Q907 0.5 904.97 0.05 902.95-0.4 901.4-1.2L901.4-1.2 901.4-5.2Q903-4.4 905.27-3.73 907.55-3.05 909.9-3.05L909.9-3.05Q913.25-3.05 914.75-4.13 916.25-5.2 916.25-7L916.25-7Q916.25-8 915.7-8.8 915.15-9.6 913.72-10.4 912.3-11.2 909.65-12.2L909.65-12.2Q907.05-13.2 905.2-14.2 903.35-15.2 902.35-16.6 901.35-18 901.35-20.2L901.35-20.2Q901.35-23.6 904.12-25.45 906.9-27.3 911.4-27.3L911.4-27.3Q913.85-27.3 915.97-26.83 918.1-26.35 919.95-25.5L919.95-25.5 918.45-22Q916.75-22.7 914.9-23.2 913.05-23.7 911.1-23.7L911.1-23.7Q908.4-23.7 906.97-22.83 905.55-21.95 905.55-20.45L905.55-20.45Q905.55-19.35 906.2-18.57 906.85-17.8 908.37-17.07 909.9-16.35 912.45-15.35L912.45-15.35Q915-14.4 916.8-13.4 918.6-12.4 919.55-10.98 920.5-9.55 920.5-7.4ZM945.14-35.7L943.89-10.05 941.04-10.05 939.79-35.7 945.14-35.7ZM939.34-2.7L939.34-2.7Q939.34-4.55 940.24-5.3 941.14-6.05 942.44-6.05L942.44-6.05Q943.69-6.05 944.62-5.3 945.54-4.55 945.54-2.7L945.54-2.7Q945.54-0.9 944.62-0.1 943.69 0.7 942.44 0.7L942.44 0.7Q941.14 0.7 940.24-0.1 939.34-0.9 939.34-2.7Z" opacity="1" transform="matrix(1,0,0,1,0,0)" fill="#2ea673" class="slogan-text-1" data-fill-palette-color="secondary" id="text-1"></path></svg></g></svg></g></svg></g></svg></g><g></g></svg></g></svg></g></svg></g><g mask="url(#f0ab1d3f-e460-4c21-8df7-3fd797857248)"><g transform="matrix(2.876001000795696, 0, 0, 2.876001000795696, 164.4756225904347, 1)"><svg xmlns="http://www.w3.org/2000/svg" xmlns:xlink="http://www.w3.org/1999/xlink" version="1.1" x="0" y="0" viewBox="38.34785471268367 7.797708631514233 23.146290561343037 85.25727214008657" enable-background="new 0 0 100 100" xml:space="preserve" height="85.25727214008657" width="23.146290561343037" class="icon-none" data-fill-palette-color="accent" id="none"><path fill="#937046" d="M61.494 23.739C61.54 7.166 50.647 7.697 49.921 7.834 49.194 7.697 38.302 7.166 38.348 23.74 38.317 35.04 43.369 52.654 46.819 62.678V90.089H46.832A3.044 3.044 0 0 0 52.918 90.089H52.93V62.948C56.381 52.973 61.525 35.142 61.494 23.739M58.695 23.739C58.73 35.225 53.959 53.61 51.42 63.505A3 3 0 0 1 51.191 63.619C52.562 53.681 54.448 35.008 54.435 23.541 54.447 12.522 52.706 9.192 51.353 8.212 53.874 9.075 58.73 12.151 58.695 23.739M51.635 23.541C51.65 35.026 50.366 53.942 49.919 63.841 49.469 54.037 48.193 35.393 48.208 23.939 48.194 12.299 49.512 9.109 49.941 8.208 50.406 9.101 51.647 12.242 51.635 23.541M48.73 8.133C47.354 9.005 45.395 12.249 45.409 23.938 45.395 35.388 47.275 53.825 48.645 63.657 48.574 63.629 48.505 63.595 48.436 63.562 45.901 53.681 41.111 35.248 41.146 23.74 41.11 11.771 46.293 8.881 48.73 8.133" data-fill-palette-color="accent"></path></svg></g></g></svg></g><defs></defs></svg><rect width="395.52" height="247.2" fill="none" stroke="none" visibility="hidden"></rect></g></svg></g></svg>